<?xml version="1.0" standalone="no"?><!-- Generator: Gravit.io --><svg xmlns="http://www.w3.org/2000/svg" xmlns:xlink="http://www.w3.org/1999/xlink" style="isolation:isolate" viewBox="0 0 445 488.493" width="445" height="488.493"><defs><clipPath id="_clipPath_PH7WpNEwkgNVfxX7IrNW8xmi7kwZ6fNr"><rect width="445" height="488.493"/></clipPath></defs><g clip-path="url(#_clipPath_PH7WpNEwkgNVfxX7IrNW8xmi7kwZ6fNr)"><g><path d=" M 190.176 14.222 C 189.378 14.62 188.147 16.359 187.241 17.374 C 182.277 22.7 180.067 32.41 175.828 67.664 C 174.704 77.048 173.654 84.802 173.545 84.947 C 173.4 85.128 169.306 83.498 164.451 81.396 C 126.588 65.055 119.052 62.048 101.805 56.396 C 96.769 54.729 89.088 52.99 86.769 52.99 C 85.03 52.99 82.856 53.896 82.24 54.874 C 81.479 56.07 81.66 60.055 82.566 63.353 C 85.863 75.128 98.58 103.136 108.037 119.476 C 112.312 126.831 119.523 136.94 119.523 135.563 C 119.523 135.346 118.001 132.629 116.117 129.513 C 105.863 112.339 100.827 100.708 97.638 86.65 C 95.102 75.418 94.595 67.954 96.225 65.744 C 97.204 64.403 99.341 64.258 102.276 65.345 C 108.327 67.519 132.276 78.896 145.429 85.853 C 158.871 92.954 170.972 100.418 170.972 101.614 C 170.972 101.94 170.429 104.404 169.741 107.049 C 166.878 118.172 163.074 124.078 154.124 131.433 C 149.197 135.455 146.298 137.52 129.45 148.897 C 102.204 167.303 92.856 174.368 82.602 184.332 C 72.711 193.97 65.609 204.042 61.406 214.477 C 56.95 225.637 55.681 233.427 55.029 254.079 C 54.631 266.253 54.087 272.014 52.674 278.572 C 49.486 293.246 42.42 310.783 34.522 323.464 C 28.072 333.826 27.348 335.131 26.297 337.776 C 24.051 343.464 24.667 348.573 28.58 356.471 C 32.348 364.189 38.725 372.957 45.391 379.66 C 51.623 385.892 56.008 388.718 65.464 392.631 C 70.935 394.878 72.819 396.109 79.124 401.544 C 89.45 410.421 97.493 414.407 109.378 416.653 C 114.341 417.595 131.407 417.595 138.363 416.653 C 150.864 414.95 163.726 412.015 174.233 408.392 C 177.712 407.197 180.828 406.146 181.154 406.037 C 182.386 405.602 198.473 428.247 216.915 456.291 C 229.161 474.915 231.589 478.393 232.06 477.922 C 232.459 477.523 230.683 473.284 226.915 465.675 C 216.408 444.407 203.002 422.885 189.705 406.001 L 187.639 403.392 L 193.147 400.566 C 200.176 396.943 204.415 394.298 210.067 390.059 C 212.531 388.211 214.632 386.689 214.813 386.689 C 215.212 386.689 226.915 395.349 233.654 400.638 C 251.915 414.986 260.176 422.342 304.633 463.791 C 318.293 476.545 322.133 479.444 318.728 474.444 C 313.872 467.306 297.677 449.262 282.713 434.334 C 263.147 414.769 247.386 401.581 225.611 386.472 C 222.64 384.443 220.031 382.704 219.813 382.595 C 219.524 382.522 220.719 381.037 222.64 379.008 C 225.973 375.566 228.147 372.74 227.748 372.341 C 227.35 371.943 226.009 372.631 220.611 376.182 L 215.103 379.769 L 210.9 377.196 C 197.567 369.153 177.023 358.464 172.965 357.486 L 171.878 357.232 L 172.603 358.029 C 173.654 359.225 176.661 361.29 187.096 368.029 C 199.234 375.819 209.741 382.812 209.741 383.102 C 209.741 383.501 197.023 390.53 189.922 394.08 C 186.081 396.001 182.893 397.559 182.82 397.559 C 182.748 397.559 180.284 394.95 177.313 391.725 C 169.958 383.718 159.668 374.37 158.255 374.37 C 157.059 374.37 158.4 376.29 169.161 389.914 C 173.436 395.349 176.915 399.914 176.878 400.023 C 176.77 400.385 166.407 404.37 160.646 406.218 C 143.219 411.87 127.856 412.776 112.457 409.008 C 93.218 404.298 64.703 389.37 53.218 377.993 C 49.087 373.899 47.964 371.037 48.87 366.761 C 49.413 364.153 52.312 358.066 56.551 350.638 C 64.993 335.783 66.66 331.254 64.957 327.957 C 63.689 325.457 60.609 325.022 51.841 326.036 C 45.826 326.725 42.819 326.616 42.094 325.602 C 40.681 323.754 42.348 319.877 49.703 307.993 C 58.942 292.993 63.037 285.094 65.464 277.63 C 67.203 272.195 67.529 270.275 67.529 264.224 C 67.529 258.065 67.24 256.108 65.138 247.195 C 63.29 239.296 62.638 235.347 62.638 232.195 C 62.638 220.963 68.979 209.115 84.377 191.361 C 89.16 185.89 100.791 174.368 106.588 169.441 C 127.494 153.716 149.958 141.397 167.349 133.063 C 174.958 122.556 178.219 112.773 182.929 99.367 C 184.016 86.686 183.291 91.034 184.378 80.164 C 184.378 73.642 184.741 72.193 185.465 66.396 C 185.828 60.961 185.465 60.599 185.465 56.251 C 186.19 50.454 185.828 47.193 187.277 40.309 C 187.277 35.599 188.002 33.425 189.813 29.077 C 191.262 23.28 191.987 23.28 196.335 24.729 C 201.77 26.903 215.176 38.135 215.538 37.773 C 216.444 36.867 230.031 49.005 272.531 81.722 C 335.757 128.063 356.663 144.73 378.185 165.854 C 382.88 170.473 387.41 173.454 390.178 176.18 C 393.438 179.803 395.609 181.992 398.149 184.875 C 400.072 187.06 402.594 189.792 405.757 192.847 Q 413.728 201.542 417.352 206.615 Q 422.968 214.332 424.598 215.311 C 425.359 215.818 424.852 216.506 424.598 215.311 C 424.272 213.535 408.873 189.876 404.308 181.977 C 396.699 171.47 387.279 156.614 341.083 117.882 C 318.438 99.367 302.93 87.048 245.249 46.758 C 235.393 39.838 223.074 31.178 217.893 27.483 C 203.654 17.301 198.763 14.62 194.161 14.33 C 192.386 14.222 191.262 13.714 190.176 14.222 Z " fill="rgb(158,158,158)"/><path d=" M 120.066 231.253 C 114.74 231.724 106.878 232.992 103.037 233.97 C 97.566 235.347 95.283 236.905 95.791 238.934 C 95.935 239.441 97.131 241.217 98.472 242.883 C 101.588 246.796 103.544 249.623 106.878 254.949 C 110.138 260.275 112.747 263.137 115.428 264.441 C 121.153 267.231 130.791 264.913 140.574 258.354 C 146.443 254.441 149.777 250.637 153.364 243.68 C 155.791 239.079 157.349 237.702 162.349 235.818 L 164.487 235.021 L 163.11 234.586 C 161.153 234.006 151.697 232.448 146.153 231.796 C 140.501 231.108 125.139 230.818 120.066 231.253 Z " fill="rgb(158,158,158)"/><path d=" M 174.414 342.305 C 175.393 343.138 179.487 345.022 186.009 347.631 C 202.023 354.008 216.154 361.073 230.103 369.515 C 240.937 376.109 248.691 381.399 273.147 398.827 C 288.763 409.95 291.227 411.653 293.003 412.559 C 295.249 413.718 294.235 412.269 289.561 407.631 C 283.836 402.015 281.445 399.878 273.944 393.646 C 249.633 373.392 229.959 360.928 207.748 351.725 C 196.878 347.196 181.19 342.377 175.9 341.906 C 173.799 341.725 173.726 341.725 174.414 342.305 Z " fill="rgb(158,158,158)"/><path d=" M 192.046 23.431 C 210.685 39.658 230.667 62.667 242.333 83.667 C 252.667 103.667 260.988 122.411 263 137 Q 240.667 144.667 214.413 143.157 C 211.123 114.212 211.781 135.263 202.572 139.868 C 203.39 136.306 204.49 116.793 199.282 110.265 Q 194.548 146.472 190.073 140.526 C 189.004 138.324 194.653 122.996 190.073 120.791 C 191.18 120.779 186.995 138.567 180.205 135.921 L 168.667 132.333 C 174.587 119.177 179.172 106.865 182.333 95.333 C 182 76.667 185.561 35.274 192.046 23.431 Z " fill="rgb(185,185,185)" vector-effect="non-scaling-stroke" stroke-width="1" stroke="rgb(185,185,185)" stroke-linejoin="miter" stroke-linecap="square" stroke-miterlimit="3"/></g></g></svg>